<svg id="Layer_1" data-name="Layer 1" xmlns="http://www.w3.org/2000/svg" viewBox="0 0 512 512"><title>Settings</title><path d="M323.88,188.12a95.73,95.73,0,1,0,20.57,30.51A95.67,95.67,0,0,0,323.88,188.12ZM293.71,293.71A53.33,53.33,0,1,1,309.33,256,52.94,52.94,0,0,1,293.71,293.71Z"/><path d="M448,192H437.07a189.72,189.72,0,0,0-7.79-18.77l7.74-7.74a42.66,42.66,0,0,0,0-60.34L406.85,75a42.71,42.71,0,0,0-60.34,0l-7.74,7.74A189.72,189.72,0,0,0,320,74.93V64a42.72,42.72,0,0,0-42.67-42.67H234.45A42.5,42.5,0,0,0,192,63.79V74.93a189.72,189.72,0,0,0-18.77,7.79L165.49,75a42.66,42.66,0,0,0-60.34,0L74.83,105.3a42.47,42.47,0,0,0,0,60l7.89,7.89A189.72,189.72,0,0,0,74.93,192H64a42.72,42.72,0,0,0-42.67,42.67v42.88A42.5,42.5,0,0,0,63.79,320H74.93a189.72,189.72,0,0,0,7.79,18.77L75,346.51a42.71,42.71,0,0,0,0,60.34l30.32,30.32a42.47,42.47,0,0,0,60,0l7.89-7.89A189.72,189.72,0,0,0,192,437.07V448a42.72,42.72,0,0,0,42.67,42.67h42.66A42.72,42.72,0,0,0,320,448V437.07a189.72,189.72,0,0,0,18.77-7.79l7.74,7.74a42.73,42.73,0,0,0,60.34,0L437,406.85a42.71,42.71,0,0,0,0-60.34l-7.74-7.74A189.72,189.72,0,0,0,437.07,320H448a42.72,42.72,0,0,0,42.67-42.67V234.67A42.72,42.72,0,0,0,448,192Zm0,85.33H421.29a21.34,21.34,0,0,0-20.66,16,148.66,148.66,0,0,1-16,38.49A21.34,21.34,0,0,0,388,357.78l18.9,18.9-30.17,30.17L357.78,388a21.34,21.34,0,0,0-25.94-3.28,148.66,148.66,0,0,1-38.49,16,21.34,21.34,0,0,0-16,20.66V448H234.67V421.29a21.34,21.34,0,0,0-16-20.66,148.66,148.66,0,0,1-38.49-16A21.34,21.34,0,0,0,154.22,388l-18.9,18.9-30.17-30.17,18.9-18.9a21.34,21.34,0,0,0,3.28-25.94,148.66,148.66,0,0,1-16-38.49,21.34,21.34,0,0,0-20.66-16H64V234.67H90.71a21.34,21.34,0,0,0,20.66-16,148.66,148.66,0,0,1,16-38.49,21.34,21.34,0,0,0-3.28-25.94l-18.9-18.9,30.17-30.17,18.9,18.9a21.34,21.34,0,0,0,25.94,3.28,148.66,148.66,0,0,1,38.49-16,21.34,21.34,0,0,0,16-20.66V64h42.66V90.71a21.34,21.34,0,0,0,16,20.66,148.66,148.66,0,0,1,38.49,16,21.34,21.34,0,0,0,25.94-3.28l18.9-18.9h0l30.17,30.17L388,154.22a21.34,21.34,0,0,0-3.28,25.94,148.66,148.66,0,0,1,16,38.49,21.34,21.34,0,0,0,20.66,16H448Z"/></svg>