<?xml version="1.0" encoding="UTF-8" standalone="no"?> <svg width="64" height="64" viewBox="0 0 64 64" fill="none" xmlns="http://www.w3.org/2000/svg">
<path d="M59 20.0001H37.47C35.7204 18.9924 33.7848 18.3495 31.78 18.1101C31.9248 17.7579 31.9995 17.3809 32 17.0001C31.9979 16.4775 31.8592 15.9646 31.5979 15.5121C31.3366 15.0595 30.9615 14.6831 30.51 14.4201L35.86 5.51011C35.95 5.35829 35.9982 5.18534 35.9998 5.00884C36.0013 4.83234 35.9561 4.65858 35.8688 4.50521C35.7814 4.35184 35.655 4.22432 35.5024 4.1356C35.3499 4.04689 35.1765 4.00014 35 4.00011C34.6516 4.00436 34.306 3.93736 33.9844 3.80323C33.6629 3.6691 33.3721 3.47067 33.13 3.22011C32.2784 2.43554 31.1629 2 30.005 2C28.8471 2 27.7316 2.43554 26.88 3.22011C26.6343 3.46725 26.3421 3.66338 26.0203 3.79721C25.6986 3.93105 25.3535 3.99994 25.005 3.99994C24.6565 3.99994 24.3114 3.93105 23.9896 3.79721C23.6679 3.66338 23.3757 3.46725 23.13 3.22011C22.2784 2.43554 21.1629 2 20.005 2C18.8471 2 17.7316 2.43554 16.88 3.22011C16.6352 3.46988 16.3425 3.6677 16.0195 3.80172C15.6965 3.93575 15.3497 4.00322 15 4.00011C14.8235 4.00014 14.6501 4.04689 14.4976 4.1356C14.345 4.22432 14.2186 4.35184 14.1312 4.50521C14.0439 4.65858 13.9987 4.83234 14.0002 5.00884C14.0017 5.18534 14.05 5.35829 14.14 5.51011L19.49 14.4201C18.8667 14.779 18.3945 15.3516 18.161 16.0319C17.9275 16.7122 17.9485 17.4541 18.22 18.1201C14.5791 18.5572 11.2242 20.3121 8.78862 23.0535C6.35305 25.7949 5.00537 29.3331 4.99999 33.0001V46.1301C4.10336 46.3584 3.31391 46.8912 2.76668 47.6372C2.21945 48.3833 1.94843 49.2963 1.99999 50.2201C2.09473 51.2582 2.57592 52.2228 3.34823 52.9229C4.12054 53.623 5.12763 54.0074 6.16999 54.0001H32V59.0001C32.0024 59.795 32.3192 60.5567 32.8813 61.1188C33.4434 61.6809 34.2051 61.9977 35 62.0001H59C59.7949 61.9977 60.5566 61.6809 61.1187 61.1188C61.6808 60.5567 61.9976 59.795 62 59.0001V23.0001C61.9976 22.2052 61.6808 21.4435 61.1187 20.8814C60.5566 20.3193 59.7949 20.0025 59 20.0001V20.0001ZM16.6 5.73011C17.1582 5.49857 17.6749 5.1777 18.13 4.78011C18.3721 4.52955 18.6629 4.33112 18.9844 4.19699C19.306 4.06285 19.6516 3.99586 20 4.00011C20.3497 3.997 20.6965 4.06447 21.0195 4.1985C21.3425 4.33252 21.6352 4.53034 21.88 4.78011C22.7316 5.56468 23.8471 6.00022 25.005 6.00022C26.1629 6.00022 27.2784 5.56468 28.13 4.78011C28.3757 4.53297 28.6679 4.33684 28.9896 4.20301C29.3114 4.06917 29.6565 4.00027 30.005 4.00027C30.3535 4.00027 30.6986 4.06917 31.0203 4.20301C31.3421 4.33684 31.6343 4.53297 31.88 4.78011C32.3297 5.1799 32.8436 5.50106 33.4 5.73011L28.43 14.0001H21.57L16.6 5.73011ZM30 17.0001C30 17.2653 29.8946 17.5197 29.7071 17.7072C29.5196 17.8948 29.2652 18.0001 29 18.0001H21C20.7348 18.0001 20.4804 17.8948 20.2929 17.7072C20.1054 17.5197 20 17.2653 20 17.0001C20 16.7349 20.1054 16.4805 20.2929 16.293C20.4804 16.1055 20.7348 16.0001 21 16.0001H29C29.2652 16.0001 29.5196 16.1055 29.7071 16.293C29.8946 16.4805 30 16.7349 30 17.0001ZM26 51.0001C26 51.2653 25.8946 51.5197 25.7071 51.7072C25.5196 51.8948 25.2652 52.0001 25 52.0001H13C12.7348 52.0001 12.4804 51.8948 12.2929 51.7072C12.1054 51.5197 12 51.2653 12 51.0001V49.0001C12 48.7349 12.1054 48.4805 12.2929 48.293C12.4804 48.1055 12.7348 48.0001 13 48.0001H14V50.0001H16V48.0001H18V50.0001H20V48.0001H22V50.0001H24V48.0001H25C25.2652 48.0001 25.5196 48.1055 25.7071 48.293C25.8946 48.4805 26 48.7349 26 49.0001V51.0001ZM26 45.0001C26 45.2653 25.8946 45.5197 25.7071 45.7072C25.5196 45.8948 25.2652 46.0001 25 46.0001H13C12.7348 46.0001 12.4804 45.8948 12.2929 45.7072C12.1054 45.5197 12 45.2653 12 45.0001V43.0001C12 42.7349 12.1054 42.4805 12.2929 42.293C12.4804 42.1055 12.7348 42.0001 13 42.0001H14V44.0001H16V42.0001H18V44.0001H20V42.0001H22V44.0001H24V42.0001H25C25.2652 42.0001 25.5196 42.1055 25.7071 42.293C25.8946 42.4805 26 42.7349 26 43.0001V45.0001ZM14 35.0001C14 34.0112 14.2932 33.0445 14.8426 32.2223C15.3921 31.4 16.1729 30.7592 17.0866 30.3807C18.0002 30.0023 19.0055 29.9033 19.9754 30.0962C20.9454 30.2891 21.8363 30.7653 22.5355 31.4646C23.2348 32.1638 23.711 33.0548 23.9039 34.0247C24.0968 34.9946 23.9978 35.9999 23.6194 36.9135C23.241 37.8272 22.6001 38.6081 21.7778 39.1575C20.9556 39.7069 19.9889 40.0001 19 40.0001C17.6739 40.0001 16.4021 39.4733 15.4645 38.5356C14.5268 37.598 14 36.3262 14 35.0001ZM32 23.0001V52.0001H27.82C27.9364 51.6794 27.9973 51.3413 28 51.0001V49.0001C27.9981 48.2596 27.7199 47.5464 27.22 47.0001C27.7199 46.4538 27.9981 45.7406 28 45.0001V43.0001C27.9976 42.2052 27.6808 41.4435 27.1187 40.8814C26.5566 40.3193 25.7949 40.0025 25 40.0001H23.89C24.8858 39.028 25.5692 37.7811 25.8529 36.4187C26.1367 35.0563 26.0079 33.6403 25.4831 32.3514C24.9583 31.0625 24.0612 29.9593 22.9064 29.1827C21.7517 28.4061 20.3916 27.9913 19 27.9913C17.6084 27.9913 16.2483 28.4061 15.0936 29.1827C13.9388 29.9593 13.0417 31.0625 12.5169 32.3514C11.9921 33.6403 11.8633 35.0563 12.1471 36.4187C12.4308 37.7811 13.1142 39.028 14.11 40.0001H13C12.2051 40.0025 11.4434 40.3193 10.8813 40.8814C10.3192 41.4435 10.0024 42.2052 10 43.0001V45.0001C10.0019 45.7406 10.2801 46.4538 10.78 47.0001C10.2801 47.5464 10.0019 48.2596 10 49.0001V51.0001C10.0027 51.3413 10.0636 51.6794 10.18 52.0001H6.16999C5.63729 52.0142 5.11871 51.8278 4.71686 51.4778C4.31502 51.1278 4.05919 50.6397 3.99999 50.1101C3.98503 49.8384 4.02568 49.5664 4.11946 49.3109C4.21325 49.0554 4.35819 48.8218 4.54542 48.6242C4.73265 48.4267 4.95823 48.2695 5.20834 48.1622C5.45845 48.0548 5.72783 47.9997 5.99999 48.0001C6.26521 48.0001 6.51956 47.8948 6.7071 47.7072C6.89464 47.5197 6.99999 47.2653 6.99999 47.0001V33.0001C7.00317 29.5533 8.37383 26.2485 10.8111 23.8112C13.2484 21.3739 16.5532 20.0033 20 20.0001H20.54C19.55 21.0973 19.0013 22.5223 19 24.0001V25.0001H21V24.0001C21 22.9392 21.4214 21.9218 22.1716 21.1717C22.9217 20.4215 23.9391 20.0001 25 20.0001C26.0609 20.0001 27.0783 20.4215 27.8284 21.1717C28.5786 21.9218 29 22.9392 29 24.0001V25.0001H31V24.0001C30.9986 22.5223 30.45 21.0973 29.46 20.0001H30C31.1553 20.0021 32.3052 20.1568 33.42 20.4601C32.9872 20.7282 32.6298 21.1021 32.3814 21.5464C32.133 21.9908 32.0017 22.491 32 23.0001V23.0001ZM60 59.0001C60 59.2653 59.8946 59.5197 59.7071 59.7072C59.5196 59.8948 59.2652 60.0001 59 60.0001H35C34.7348 60.0001 34.4804 59.8948 34.2929 59.7072C34.1054 59.5197 34 59.2653 34 59.0001V23.0001C34 22.7349 34.1054 22.4805 34.2929 22.293C34.4804 22.1055 34.7348 22.0001 35 22.0001H59C59.2652 22.0001 59.5196 22.1055 59.7071 22.293C59.8946 22.4805 60 22.7349 60 23.0001V59.0001Z" fill="black"/>
<path d="M56 24H38C37.4696 24 36.9609 24.2107 36.5858 24.5858C36.2107 24.9609 36 25.4696 36 26V32C36 32.5304 36.2107 33.0391 36.5858 33.4142C36.9609 33.7893 37.4696 34 38 34H56C56.5304 34 57.0391 33.7893 57.4142 33.4142C57.7893 33.0391 58 32.5304 58 32V26C58 25.4696 57.7893 24.9609 57.4142 24.5858C57.0391 24.2107 56.5304 24 56 24ZM38 32V26H56V32H38Z" fill="black"/>
<path d="M52 28H50V30H52V28Z" fill="black"/>
<path d="M48 28H46V30H48V28Z" fill="black"/>
<path d="M44 28H42V30H44V28Z" fill="black"/>
<path d="M41 44H37C36.7348 44 36.4804 44.1054 36.2929 44.2929C36.1054 44.4804 36 44.7348 36 45V49C36 49.2652 36.1054 49.5196 36.2929 49.7071C36.4804 49.8946 36.7348 50 37 50H41C41.2652 50 41.5196 49.8946 41.7071 49.7071C41.8946 49.5196 42 49.2652 42 49V45C42 44.7348 41.8946 44.4804 41.7071 44.2929C41.5196 44.1054 41.2652 44 41 44ZM40 48H38V46H40V48Z" fill="black"/>
<path d="M41 36H37C36.7348 36 36.4804 36.1054 36.2929 36.2929C36.1054 36.4804 36 36.7348 36 37V41C36 41.2652 36.1054 41.5196 36.2929 41.7071C36.4804 41.8946 36.7348 42 37 42H41C41.2652 42 41.5196 41.8946 41.7071 41.7071C41.8946 41.5196 42 41.2652 42 41V37C42 36.7348 41.8946 36.4804 41.7071 36.2929C41.5196 36.1054 41.2652 36 41 36ZM40 40H38V38H40V40Z" fill="black"/>
<path d="M49 36H45C44.7348 36 44.4804 36.1054 44.2929 36.2929C44.1054 36.4804 44 36.7348 44 37V41C44 41.2652 44.1054 41.5196 44.2929 41.7071C44.4804 41.8946 44.7348 42 45 42H49C49.2652 42 49.5196 41.8946 49.7071 41.7071C49.8946 41.5196 50 41.2652 50 41V37C50 36.7348 49.8946 36.4804 49.7071 36.2929C49.5196 36.1054 49.2652 36 49 36ZM48 40H46V38H48V40Z" fill="black"/>
<path d="M57 36H53C52.7348 36 52.4804 36.1054 52.2929 36.2929C52.1054 36.4804 52 36.7348 52 37V41C52 41.2652 52.1054 41.5196 52.2929 41.7071C52.4804 41.8946 52.7348 42 53 42H57C57.2652 42 57.5196 41.8946 57.7071 41.7071C57.8946 41.5196 58 41.2652 58 41V37C58 36.7348 57.8946 36.4804 57.7071 36.2929C57.5196 36.1054 57.2652 36 57 36ZM56 40H54V38H56V40Z" fill="black"/>
<path d="M49 44H45C44.7348 44 44.4804 44.1054 44.2929 44.2929C44.1054 44.4804 44 44.7348 44 45V49C44 49.2652 44.1054 49.5196 44.2929 49.7071C44.4804 49.8946 44.7348 50 45 50H49C49.2652 50 49.5196 49.8946 49.7071 49.7071C49.8946 49.5196 50 49.2652 50 49V45C50 44.7348 49.8946 44.4804 49.7071 44.2929C49.5196 44.1054 49.2652 44 49 44ZM48 48H46V46H48V48Z" fill="black"/>
<path d="M57 44H53C52.7348 44 52.4804 44.1054 52.2929 44.2929C52.1054 44.4804 52 44.7348 52 45V49C52 49.2652 52.1054 49.5196 52.2929 49.7071C52.4804 49.8946 52.7348 50 53 50H57C57.2652 50 57.5196 49.8946 57.7071 49.7071C57.8946 49.5196 58 49.2652 58 49V45C58 44.7348 57.8946 44.4804 57.7071 44.2929C57.5196 44.1054 57.2652 44 57 44ZM56 48H54V46H56V48Z" fill="black"/>
<path d="M41 52H37C36.7348 52 36.4804 52.1054 36.2929 52.2929C36.1054 52.4804 36 52.7348 36 53V57C36 57.2652 36.1054 57.5196 36.2929 57.7071C36.4804 57.8946 36.7348 58 37 58H41C41.2652 58 41.5196 57.8946 41.7071 57.7071C41.8946 57.5196 42 57.2652 42 57V53C42 52.7348 41.8946 52.4804 41.7071 52.2929C41.5196 52.1054 41.2652 52 41 52ZM40 56H38V54H40V56Z" fill="black"/>
<path d="M49 52H45C44.7348 52 44.4804 52.1054 44.2929 52.2929C44.1054 52.4804 44 52.7348 44 53V57C44 57.2652 44.1054 57.5196 44.2929 57.7071C44.4804 57.8946 44.7348 58 45 58H49C49.2652 58 49.5196 57.8946 49.7071 57.7071C49.8946 57.5196 50 57.2652 50 57V53C50 52.7348 49.8946 52.4804 49.7071 52.2929C49.5196 52.1054 49.2652 52 49 52ZM48 56H46V54H48V56Z" fill="black"/>
<path d="M57 52H53C52.7348 52 52.4804 52.1054 52.2929 52.2929C52.1054 52.4804 52 52.7348 52 53V57C52 57.2652 52.1054 57.5196 52.2929 57.7071C52.4804 57.8946 52.7348 58 53 58H57C57.2652 58 57.5196 57.8946 57.7071 57.7071C57.8946 57.5196 58 57.2652 58 57V53C58 52.7348 57.8946 52.4804 57.7071 52.2929C57.5196 52.1054 57.2652 52 57 52ZM56 56H54V54H56V56Z" fill="black"/>
<path d="M19 36V38C19.7956 38 20.5587 37.6839 21.1213 37.1213C21.6839 36.5587 22 35.7956 22 35H20C20 35.2652 19.8946 35.5196 19.7071 35.7071C19.5196 35.8946 19.2652 36 19 36Z" fill="black"/>
</svg>
